<mxfile host="app.diagrams.net" modified="2023-07-14T11:02:07.503Z" agent="Mozilla/5.0 (X11; Ubuntu; Linux x86_64; rv:109.0) Gecko/20100101 Firefox/115.0" etag="P3TkWJ-NhH55YtAtbN93" version="21.6.2" type="device">
  <diagram name="Page-1" id="bvk6UQsXhKccJZAQAHy-">
    <mxGraphModel dx="899" dy="552" grid="1" gridSize="10" guides="1" tooltips="1" connect="1" arrows="1" fold="1" page="1" pageScale="1" pageWidth="850" pageHeight="1100" math="0" shadow="0">
      <root>
        <mxCell id="0" />
        <mxCell id="1" parent="0" />
        <mxCell id="Ig6G22mn73n6YjTana8D-1" value="" style="rounded=1;whiteSpace=wrap;html=1;fillColor=#006eaf;opacity=60;strokeWidth=3;" parent="1" vertex="1">
          <mxGeometry x="50" y="150" width="80" height="20" as="geometry" />
        </mxCell>
        <mxCell id="Ig6G22mn73n6YjTana8D-2" value="" style="rounded=1;whiteSpace=wrap;html=1;fillColor=#006eaf;opacity=60;strokeWidth=3;" parent="1" vertex="1">
          <mxGeometry x="50" y="180" width="80" height="20" as="geometry" />
        </mxCell>
        <mxCell id="Ig6G22mn73n6YjTana8D-3" value="" style="rounded=1;whiteSpace=wrap;html=1;fillColor=#006eaf;opacity=60;strokeWidth=3;" parent="1" vertex="1">
          <mxGeometry x="50" y="210" width="80" height="20" as="geometry" />
        </mxCell>
        <mxCell id="Ig6G22mn73n6YjTana8D-4" value="" style="rounded=1;whiteSpace=wrap;html=1;fillColor=#006eaf;opacity=60;strokeWidth=3;" parent="1" vertex="1">
          <mxGeometry x="50" y="240" width="80" height="20" as="geometry" />
        </mxCell>
        <mxCell id="Ig6G22mn73n6YjTana8D-5" value="" style="rounded=1;whiteSpace=wrap;html=1;fillColor=#006eaf;opacity=60;strokeWidth=3;" parent="1" vertex="1">
          <mxGeometry x="50" y="270" width="80" height="20" as="geometry" />
        </mxCell>
        <mxCell id="Ig6G22mn73n6YjTana8D-6" value="" style="rounded=1;whiteSpace=wrap;html=1;fillColor=#006eaf;opacity=60;strokeWidth=3;" parent="1" vertex="1">
          <mxGeometry x="50" y="300" width="80" height="20" as="geometry" />
        </mxCell>
        <mxCell id="Ig6G22mn73n6YjTana8D-7" value="" style="rounded=1;whiteSpace=wrap;html=1;fillColor=none;opacity=60;strokeWidth=3;" parent="1" vertex="1">
          <mxGeometry x="50" y="360" width="80" height="20" as="geometry" />
        </mxCell>
        <mxCell id="Ig6G22mn73n6YjTana8D-8" value="" style="rounded=1;whiteSpace=wrap;html=1;fillColor=#99CCFF;opacity=60;strokeWidth=3;" parent="1" vertex="1">
          <mxGeometry x="190" y="150" width="80" height="20" as="geometry" />
        </mxCell>
        <mxCell id="Ig6G22mn73n6YjTana8D-9" value="" style="rounded=1;whiteSpace=wrap;html=1;fillColor=#99CCFF;opacity=60;strokeWidth=3;" parent="1" vertex="1">
          <mxGeometry x="190" y="180" width="80" height="20" as="geometry" />
        </mxCell>
        <mxCell id="Ig6G22mn73n6YjTana8D-10" value="" style="rounded=1;whiteSpace=wrap;html=1;fillColor=#99CCFF;opacity=60;strokeWidth=3;" parent="1" vertex="1">
          <mxGeometry x="190" y="210" width="80" height="20" as="geometry" />
        </mxCell>
        <mxCell id="Ig6G22mn73n6YjTana8D-11" value="" style="rounded=1;whiteSpace=wrap;html=1;fillColor=#99CCFF;opacity=60;strokeWidth=3;" parent="1" vertex="1">
          <mxGeometry x="190" y="240" width="80" height="20" as="geometry" />
        </mxCell>
        <mxCell id="Ig6G22mn73n6YjTana8D-12" value="" style="rounded=1;whiteSpace=wrap;html=1;fillColor=#99CCFF;opacity=60;strokeWidth=3;" parent="1" vertex="1">
          <mxGeometry x="190" y="270" width="80" height="20" as="geometry" />
        </mxCell>
        <mxCell id="Ig6G22mn73n6YjTana8D-13" value="" style="rounded=1;whiteSpace=wrap;html=1;fillColor=#99CCFF;opacity=60;strokeWidth=3;" parent="1" vertex="1">
          <mxGeometry x="190" y="300" width="80" height="20" as="geometry" />
        </mxCell>
        <mxCell id="Ig6G22mn73n6YjTana8D-15" value="keys" style="text;html=1;strokeColor=none;fillColor=none;align=center;verticalAlign=middle;whiteSpace=wrap;rounded=0;fontFamily=Courier New;fontSize=16;" parent="1" vertex="1">
          <mxGeometry x="50" y="130" width="80" height="20" as="geometry" />
        </mxCell>
        <mxCell id="Ig6G22mn73n6YjTana8D-16" value="values" style="text;html=1;strokeColor=none;fillColor=none;align=center;verticalAlign=middle;whiteSpace=wrap;rounded=0;fontFamily=Courier New;fontSize=16;" parent="1" vertex="1">
          <mxGeometry x="190" y="130" width="80" height="20" as="geometry" />
        </mxCell>
        <mxCell id="Ig6G22mn73n6YjTana8D-17" value="query" style="text;html=1;strokeColor=none;fillColor=none;align=center;verticalAlign=middle;whiteSpace=wrap;rounded=0;fontFamily=Courier New;fontSize=16;" parent="1" vertex="1">
          <mxGeometry x="50" y="380" width="80" height="20" as="geometry" />
        </mxCell>
        <mxCell id="Ig6G22mn73n6YjTana8D-20" value="" style="endArrow=none;html=1;rounded=0;exitX=1;exitY=0.5;exitDx=0;exitDy=0;endFill=0;strokeColor=#000000;strokeWidth=2;opacity=60;" parent="1" source="Ig6G22mn73n6YjTana8D-7" edge="1">
          <mxGeometry width="50" height="50" relative="1" as="geometry">
            <mxPoint x="330" y="370" as="sourcePoint" />
            <mxPoint x="150" y="160" as="targetPoint" />
            <Array as="points">
              <mxPoint x="150" y="370" />
            </Array>
          </mxGeometry>
        </mxCell>
        <mxCell id="Ig6G22mn73n6YjTana8D-21" value="" style="endArrow=none;html=1;rounded=0;exitX=1;exitY=0.5;exitDx=0;exitDy=0;strokeWidth=2;opacity=60;" parent="1" source="Ig6G22mn73n6YjTana8D-6" edge="1">
          <mxGeometry width="50" height="50" relative="1" as="geometry">
            <mxPoint x="330" y="370" as="sourcePoint" />
            <mxPoint x="150" y="310" as="targetPoint" />
          </mxGeometry>
        </mxCell>
        <mxCell id="Ig6G22mn73n6YjTana8D-22" value="" style="endArrow=none;html=1;rounded=0;exitX=1;exitY=0.5;exitDx=0;exitDy=0;strokeWidth=2;opacity=60;" parent="1" source="Ig6G22mn73n6YjTana8D-5" edge="1">
          <mxGeometry width="50" height="50" relative="1" as="geometry">
            <mxPoint x="140" y="430" as="sourcePoint" />
            <mxPoint x="150" y="280" as="targetPoint" />
          </mxGeometry>
        </mxCell>
        <mxCell id="Ig6G22mn73n6YjTana8D-24" value="" style="endArrow=none;html=1;rounded=0;exitX=1;exitY=0.5;exitDx=0;exitDy=0;strokeWidth=2;opacity=60;" parent="1" source="Ig6G22mn73n6YjTana8D-3" edge="1">
          <mxGeometry width="50" height="50" relative="1" as="geometry">
            <mxPoint x="160" y="450" as="sourcePoint" />
            <mxPoint x="150" y="220" as="targetPoint" />
          </mxGeometry>
        </mxCell>
        <mxCell id="Ig6G22mn73n6YjTana8D-25" value="" style="endArrow=none;html=1;rounded=0;exitX=1;exitY=0.5;exitDx=0;exitDy=0;strokeWidth=2;opacity=60;" parent="1" source="Ig6G22mn73n6YjTana8D-2" edge="1">
          <mxGeometry width="50" height="50" relative="1" as="geometry">
            <mxPoint x="170" y="460" as="sourcePoint" />
            <mxPoint x="150" y="190" as="targetPoint" />
          </mxGeometry>
        </mxCell>
        <mxCell id="Ig6G22mn73n6YjTana8D-27" value="" style="endArrow=none;html=1;rounded=0;exitX=1;exitY=0.5;exitDx=0;exitDy=0;strokeWidth=2;opacity=60;" parent="1" source="Ig6G22mn73n6YjTana8D-1" edge="1">
          <mxGeometry width="50" height="50" relative="1" as="geometry">
            <mxPoint x="190" y="480" as="sourcePoint" />
            <mxPoint x="150" y="160" as="targetPoint" />
          </mxGeometry>
        </mxCell>
        <mxCell id="Ig6G22mn73n6YjTana8D-28" value="" style="endArrow=classic;html=1;rounded=0;strokeWidth=3;exitX=1;exitY=0.5;exitDx=0;exitDy=0;" parent="1" source="Ig6G22mn73n6YjTana8D-4" edge="1">
          <mxGeometry width="50" height="50" relative="1" as="geometry">
            <mxPoint x="170" y="320" as="sourcePoint" />
            <mxPoint x="170" y="250" as="targetPoint" />
          </mxGeometry>
        </mxCell>
        <mxCell id="Ig6G22mn73n6YjTana8D-51" value="" style="endArrow=classic;html=1;rounded=0;strokeWidth=3;exitX=0;exitY=0.5;exitDx=0;exitDy=0;entryX=0;entryY=0.5;entryDx=0;entryDy=0;" parent="1" source="Ig6G22mn73n6YjTana8D-11" target="Ig6G22mn73n6YjTana8D-52" edge="1">
          <mxGeometry width="50" height="50" relative="1" as="geometry">
            <mxPoint x="130" y="80" as="sourcePoint" />
            <mxPoint x="180" y="80" as="targetPoint" />
            <Array as="points">
              <mxPoint x="170" y="250" />
              <mxPoint x="170" y="100" />
            </Array>
          </mxGeometry>
        </mxCell>
        <mxCell id="Ig6G22mn73n6YjTana8D-52" value="" style="rounded=1;whiteSpace=wrap;html=1;fillColor=#99CCFF;opacity=60;strokeWidth=3;" parent="1" vertex="1">
          <mxGeometry x="190" y="90" width="80" height="20" as="geometry" />
        </mxCell>
        <mxCell id="Ig6G22mn73n6YjTana8D-53" value="output" style="text;html=1;strokeColor=none;fillColor=none;align=center;verticalAlign=middle;whiteSpace=wrap;rounded=0;fontFamily=Courier New;fontSize=16;" parent="1" vertex="1">
          <mxGeometry x="190" y="70" width="80" height="20" as="geometry" />
        </mxCell>
        <mxCell id="Ig6G22mn73n6YjTana8D-79" value="" style="endArrow=none;html=1;rounded=0;endFill=0;strokeColor=#000000;strokeWidth=2;opacity=60;entryX=0.5;entryY=1;entryDx=0;entryDy=0;" parent="1" edge="1">
          <mxGeometry width="50" height="50" relative="1" as="geometry">
            <mxPoint x="300" y="400" as="sourcePoint" />
            <mxPoint x="300" y="70" as="targetPoint" />
            <Array as="points" />
          </mxGeometry>
        </mxCell>
        <mxCell id="Ig6G22mn73n6YjTana8D-80" value="&lt;font style=&quot;font-size: 20px;&quot; face=&quot;Courier New&quot;&gt;+&lt;/font&gt;" style="ellipse;whiteSpace=wrap;html=1;aspect=fixed;fillColor=#006eaf;opacity=60;" parent="1" vertex="1">
          <mxGeometry x="440" y="90" width="20" height="20" as="geometry" />
        </mxCell>
        <mxCell id="Ig6G22mn73n6YjTana8D-110" value="" style="rounded=1;whiteSpace=wrap;html=1;fillColor=#006eaf;opacity=60;strokeWidth=3;" parent="1" vertex="1">
          <mxGeometry x="330" y="150" width="80" height="20" as="geometry" />
        </mxCell>
        <mxCell id="Ig6G22mn73n6YjTana8D-111" value="" style="rounded=1;whiteSpace=wrap;html=1;fillColor=#006eaf;opacity=60;strokeWidth=3;" parent="1" vertex="1">
          <mxGeometry x="330" y="180" width="80" height="20" as="geometry" />
        </mxCell>
        <mxCell id="Ig6G22mn73n6YjTana8D-112" value="" style="rounded=1;whiteSpace=wrap;html=1;fillColor=#006eaf;opacity=60;strokeWidth=3;" parent="1" vertex="1">
          <mxGeometry x="330" y="210" width="80" height="20" as="geometry" />
        </mxCell>
        <mxCell id="Ig6G22mn73n6YjTana8D-113" value="" style="rounded=1;whiteSpace=wrap;html=1;fillColor=#006eaf;opacity=60;strokeWidth=3;" parent="1" vertex="1">
          <mxGeometry x="330" y="240" width="80" height="20" as="geometry" />
        </mxCell>
        <mxCell id="Ig6G22mn73n6YjTana8D-114" value="" style="rounded=1;whiteSpace=wrap;html=1;fillColor=#006eaf;opacity=60;strokeWidth=3;" parent="1" vertex="1">
          <mxGeometry x="330" y="270" width="80" height="20" as="geometry" />
        </mxCell>
        <mxCell id="Ig6G22mn73n6YjTana8D-115" value="" style="rounded=1;whiteSpace=wrap;html=1;fillColor=#006eaf;opacity=60;strokeWidth=3;" parent="1" vertex="1">
          <mxGeometry x="330" y="300" width="80" height="20" as="geometry" />
        </mxCell>
        <mxCell id="Ig6G22mn73n6YjTana8D-116" value="" style="rounded=1;whiteSpace=wrap;html=1;fillColor=none;opacity=60;strokeWidth=3;" parent="1" vertex="1">
          <mxGeometry x="330" y="360" width="80" height="20" as="geometry" />
        </mxCell>
        <mxCell id="Ig6G22mn73n6YjTana8D-117" value="" style="rounded=1;whiteSpace=wrap;html=1;fillColor=#99CCFF;opacity=60;strokeWidth=3;" parent="1" vertex="1">
          <mxGeometry x="470" y="150" width="80" height="20" as="geometry" />
        </mxCell>
        <mxCell id="Ig6G22mn73n6YjTana8D-118" value="" style="rounded=1;whiteSpace=wrap;html=1;fillColor=#99CCFF;opacity=60;strokeWidth=3;" parent="1" vertex="1">
          <mxGeometry x="470" y="180" width="80" height="20" as="geometry" />
        </mxCell>
        <mxCell id="Ig6G22mn73n6YjTana8D-119" value="" style="rounded=1;whiteSpace=wrap;html=1;fillColor=#99CCFF;opacity=60;strokeWidth=3;" parent="1" vertex="1">
          <mxGeometry x="470" y="210" width="80" height="20" as="geometry" />
        </mxCell>
        <mxCell id="Ig6G22mn73n6YjTana8D-120" value="" style="rounded=1;whiteSpace=wrap;html=1;fillColor=#99CCFF;opacity=60;strokeWidth=3;" parent="1" vertex="1">
          <mxGeometry x="470" y="240" width="80" height="20" as="geometry" />
        </mxCell>
        <mxCell id="Ig6G22mn73n6YjTana8D-121" value="" style="rounded=1;whiteSpace=wrap;html=1;fillColor=#99CCFF;opacity=60;strokeWidth=3;" parent="1" vertex="1">
          <mxGeometry x="470" y="270" width="80" height="20" as="geometry" />
        </mxCell>
        <mxCell id="Ig6G22mn73n6YjTana8D-122" value="" style="rounded=1;whiteSpace=wrap;html=1;fillColor=#99CCFF;opacity=60;strokeWidth=3;" parent="1" vertex="1">
          <mxGeometry x="470" y="300" width="80" height="20" as="geometry" />
        </mxCell>
        <mxCell id="Ig6G22mn73n6YjTana8D-123" value="keys" style="text;html=1;strokeColor=none;fillColor=none;align=center;verticalAlign=middle;whiteSpace=wrap;rounded=0;fontFamily=Courier New;fontSize=16;" parent="1" vertex="1">
          <mxGeometry x="330" y="130" width="80" height="20" as="geometry" />
        </mxCell>
        <mxCell id="Ig6G22mn73n6YjTana8D-124" value="values" style="text;html=1;strokeColor=none;fillColor=none;align=center;verticalAlign=middle;whiteSpace=wrap;rounded=0;fontFamily=Courier New;fontSize=16;" parent="1" vertex="1">
          <mxGeometry x="470" y="130" width="80" height="20" as="geometry" />
        </mxCell>
        <mxCell id="Ig6G22mn73n6YjTana8D-125" value="query" style="text;html=1;strokeColor=none;fillColor=none;align=center;verticalAlign=middle;whiteSpace=wrap;rounded=0;fontFamily=Courier New;fontSize=16;" parent="1" vertex="1">
          <mxGeometry x="330" y="380" width="80" height="20" as="geometry" />
        </mxCell>
        <mxCell id="Ig6G22mn73n6YjTana8D-126" value="" style="endArrow=none;html=1;rounded=0;exitX=1;exitY=0.5;exitDx=0;exitDy=0;endFill=0;strokeColor=#000000;strokeWidth=2;opacity=60;" parent="1" source="Ig6G22mn73n6YjTana8D-116" edge="1">
          <mxGeometry width="50" height="50" relative="1" as="geometry">
            <mxPoint x="610" y="370" as="sourcePoint" />
            <mxPoint x="430" y="160" as="targetPoint" />
            <Array as="points">
              <mxPoint x="430" y="370" />
            </Array>
          </mxGeometry>
        </mxCell>
        <mxCell id="Ig6G22mn73n6YjTana8D-127" value="" style="endArrow=none;html=1;rounded=0;exitX=1;exitY=0.5;exitDx=0;exitDy=0;strokeWidth=1;opacity=20;entryX=0;entryY=0.5;entryDx=0;entryDy=0;" parent="1" source="Ig6G22mn73n6YjTana8D-115" target="Ig6G22mn73n6YjTana8D-160" edge="1">
          <mxGeometry width="50" height="50" relative="1" as="geometry">
            <mxPoint x="610" y="370" as="sourcePoint" />
            <mxPoint x="430" y="310" as="targetPoint" />
          </mxGeometry>
        </mxCell>
        <mxCell id="Ig6G22mn73n6YjTana8D-128" value="" style="endArrow=none;html=1;rounded=0;exitX=1;exitY=0.5;exitDx=0;exitDy=0;strokeWidth=3;opacity=60;entryX=0;entryY=0.5;entryDx=0;entryDy=0;" parent="1" source="Ig6G22mn73n6YjTana8D-114" target="Ig6G22mn73n6YjTana8D-158" edge="1">
          <mxGeometry width="50" height="50" relative="1" as="geometry">
            <mxPoint x="420" y="430" as="sourcePoint" />
            <mxPoint x="430" y="280" as="targetPoint" />
          </mxGeometry>
        </mxCell>
        <mxCell id="Ig6G22mn73n6YjTana8D-129" value="" style="endArrow=none;html=1;rounded=0;exitX=1;exitY=0.5;exitDx=0;exitDy=0;strokeWidth=1;opacity=60;entryX=0;entryY=0.5;entryDx=0;entryDy=0;" parent="1" source="Ig6G22mn73n6YjTana8D-112" target="Ig6G22mn73n6YjTana8D-154" edge="1">
          <mxGeometry width="50" height="50" relative="1" as="geometry">
            <mxPoint x="440" y="450" as="sourcePoint" />
            <mxPoint x="430" y="220" as="targetPoint" />
          </mxGeometry>
        </mxCell>
        <mxCell id="Ig6G22mn73n6YjTana8D-130" value="" style="endArrow=none;html=1;rounded=0;exitX=1;exitY=0.5;exitDx=0;exitDy=0;strokeWidth=2;opacity=40;entryX=0;entryY=0.5;entryDx=0;entryDy=0;" parent="1" source="Ig6G22mn73n6YjTana8D-111" target="Ig6G22mn73n6YjTana8D-151" edge="1">
          <mxGeometry width="50" height="50" relative="1" as="geometry">
            <mxPoint x="450" y="460" as="sourcePoint" />
            <mxPoint x="430" y="190" as="targetPoint" />
          </mxGeometry>
        </mxCell>
        <mxCell id="Ig6G22mn73n6YjTana8D-131" value="" style="endArrow=none;html=1;rounded=0;exitX=1;exitY=0.5;exitDx=0;exitDy=0;strokeWidth=1;opacity=20;entryX=0;entryY=0.5;entryDx=0;entryDy=0;" parent="1" source="Ig6G22mn73n6YjTana8D-110" target="Ig6G22mn73n6YjTana8D-149" edge="1">
          <mxGeometry width="50" height="50" relative="1" as="geometry">
            <mxPoint x="470" y="480" as="sourcePoint" />
            <mxPoint x="430" y="160" as="targetPoint" />
          </mxGeometry>
        </mxCell>
        <mxCell id="Ig6G22mn73n6YjTana8D-133" value="" style="endArrow=none;html=1;rounded=0;strokeWidth=2;entryX=0;entryY=0.5;entryDx=0;entryDy=0;endFill=0;opacity=60;" parent="1" target="Ig6G22mn73n6YjTana8D-134" edge="1">
          <mxGeometry width="50" height="50" relative="1" as="geometry">
            <mxPoint x="460" y="99.67" as="sourcePoint" />
            <mxPoint x="490" y="99.67" as="targetPoint" />
          </mxGeometry>
        </mxCell>
        <mxCell id="Ig6G22mn73n6YjTana8D-134" value="" style="rounded=1;whiteSpace=wrap;html=1;fillColor=#99CCFF;opacity=60;strokeWidth=3;" parent="1" vertex="1">
          <mxGeometry x="470" y="90" width="80" height="20" as="geometry" />
        </mxCell>
        <mxCell id="Ig6G22mn73n6YjTana8D-135" value="output" style="text;html=1;strokeColor=none;fillColor=none;align=center;verticalAlign=middle;whiteSpace=wrap;rounded=0;fontFamily=Courier New;fontSize=16;" parent="1" vertex="1">
          <mxGeometry x="470" y="70" width="80" height="20" as="geometry" />
        </mxCell>
        <mxCell id="Ig6G22mn73n6YjTana8D-136" value="" style="endArrow=none;html=1;rounded=0;exitX=1;exitY=0.5;exitDx=0;exitDy=0;strokeWidth=4;opacity=80;entryX=0;entryY=0.5;entryDx=0;entryDy=0;" parent="1" source="Ig6G22mn73n6YjTana8D-113" target="Ig6G22mn73n6YjTana8D-156" edge="1">
          <mxGeometry width="50" height="50" relative="1" as="geometry">
            <mxPoint x="420" y="230" as="sourcePoint" />
            <mxPoint x="430" y="250" as="targetPoint" />
          </mxGeometry>
        </mxCell>
        <mxCell id="Ig6G22mn73n6YjTana8D-137" value="" style="endArrow=none;html=1;rounded=0;endFill=0;strokeColor=#000000;strokeWidth=2;opacity=60;" parent="1" source="Ig6G22mn73n6YjTana8D-149" edge="1">
          <mxGeometry width="50" height="50" relative="1" as="geometry">
            <mxPoint x="450" y="310" as="sourcePoint" />
            <mxPoint x="450" y="110" as="targetPoint" />
            <Array as="points" />
          </mxGeometry>
        </mxCell>
        <mxCell id="Ig6G22mn73n6YjTana8D-138" value="" style="endArrow=none;html=1;rounded=0;strokeWidth=1;opacity=20;entryX=0;entryY=0.5;entryDx=0;entryDy=0;exitX=1;exitY=0.5;exitDx=0;exitDy=0;" parent="1" source="Ig6G22mn73n6YjTana8D-149" target="Ig6G22mn73n6YjTana8D-117" edge="1">
          <mxGeometry width="50" height="50" relative="1" as="geometry">
            <mxPoint x="450" y="160" as="sourcePoint" />
            <mxPoint x="470" y="309.67" as="targetPoint" />
          </mxGeometry>
        </mxCell>
        <mxCell id="Ig6G22mn73n6YjTana8D-140" value="" style="endArrow=none;html=1;rounded=0;strokeWidth=3;opacity=60;entryX=0;entryY=0.5;entryDx=0;entryDy=0;exitX=1;exitY=0.5;exitDx=0;exitDy=0;" parent="1" source="Ig6G22mn73n6YjTana8D-158" target="Ig6G22mn73n6YjTana8D-121" edge="1">
          <mxGeometry width="50" height="50" relative="1" as="geometry">
            <mxPoint x="450" y="280" as="sourcePoint" />
            <mxPoint x="480" y="319.67" as="targetPoint" />
          </mxGeometry>
        </mxCell>
        <mxCell id="Ig6G22mn73n6YjTana8D-141" value="" style="endArrow=none;html=1;rounded=0;strokeWidth=4;opacity=80;entryX=0;entryY=0.5;entryDx=0;entryDy=0;exitX=1;exitY=0.5;exitDx=0;exitDy=0;" parent="1" source="Ig6G22mn73n6YjTana8D-156" target="Ig6G22mn73n6YjTana8D-120" edge="1">
          <mxGeometry width="50" height="50" relative="1" as="geometry">
            <mxPoint x="450" y="250" as="sourcePoint" />
            <mxPoint x="490" y="329.67" as="targetPoint" />
          </mxGeometry>
        </mxCell>
        <mxCell id="Ig6G22mn73n6YjTana8D-142" value="" style="endArrow=none;html=1;rounded=0;strokeWidth=1;opacity=60;entryX=0;entryY=0.5;entryDx=0;entryDy=0;exitX=1;exitY=0.5;exitDx=0;exitDy=0;" parent="1" source="Ig6G22mn73n6YjTana8D-154" target="Ig6G22mn73n6YjTana8D-119" edge="1">
          <mxGeometry width="50" height="50" relative="1" as="geometry">
            <mxPoint x="450" y="220" as="sourcePoint" />
            <mxPoint x="500" y="339.67" as="targetPoint" />
          </mxGeometry>
        </mxCell>
        <mxCell id="Ig6G22mn73n6YjTana8D-143" value="" style="endArrow=none;html=1;rounded=0;strokeWidth=2;opacity=40;entryX=0;entryY=0.5;entryDx=0;entryDy=0;exitX=1;exitY=0.5;exitDx=0;exitDy=0;" parent="1" source="Ig6G22mn73n6YjTana8D-151" target="Ig6G22mn73n6YjTana8D-118" edge="1">
          <mxGeometry width="50" height="50" relative="1" as="geometry">
            <mxPoint x="450" y="190" as="sourcePoint" />
            <mxPoint x="510" y="349.67" as="targetPoint" />
          </mxGeometry>
        </mxCell>
        <mxCell id="Ig6G22mn73n6YjTana8D-144" value="" style="endArrow=none;html=1;rounded=0;strokeWidth=1;opacity=20;entryX=0;entryY=0.5;entryDx=0;entryDy=0;exitX=1;exitY=0.5;exitDx=0;exitDy=0;" parent="1" source="Ig6G22mn73n6YjTana8D-160" target="Ig6G22mn73n6YjTana8D-122" edge="1">
          <mxGeometry width="50" height="50" relative="1" as="geometry">
            <mxPoint x="450" y="310" as="sourcePoint" />
            <mxPoint x="520" y="359.67" as="targetPoint" />
          </mxGeometry>
        </mxCell>
        <mxCell id="Ig6G22mn73n6YjTana8D-150" value="" style="endArrow=none;html=1;rounded=0;endFill=0;strokeColor=#000000;strokeWidth=2;opacity=60;" parent="1" source="Ig6G22mn73n6YjTana8D-151" target="Ig6G22mn73n6YjTana8D-149" edge="1">
          <mxGeometry width="50" height="50" relative="1" as="geometry">
            <mxPoint x="450" y="310" as="sourcePoint" />
            <mxPoint x="450" y="110" as="targetPoint" />
            <Array as="points" />
          </mxGeometry>
        </mxCell>
        <mxCell id="Ig6G22mn73n6YjTana8D-149" value="" style="rounded=0;whiteSpace=wrap;html=1;fillColor=#99CCFF;opacity=20;strokeWidth=1;" parent="1" vertex="1">
          <mxGeometry x="445" y="155" width="10" height="10" as="geometry" />
        </mxCell>
        <mxCell id="Ig6G22mn73n6YjTana8D-153" value="" style="endArrow=none;html=1;rounded=0;endFill=0;strokeColor=#000000;strokeWidth=2;opacity=60;" parent="1" source="Ig6G22mn73n6YjTana8D-154" target="Ig6G22mn73n6YjTana8D-151" edge="1">
          <mxGeometry width="50" height="50" relative="1" as="geometry">
            <mxPoint x="450" y="310" as="sourcePoint" />
            <mxPoint x="450" y="165" as="targetPoint" />
            <Array as="points" />
          </mxGeometry>
        </mxCell>
        <mxCell id="Ig6G22mn73n6YjTana8D-151" value="" style="rounded=0;whiteSpace=wrap;html=1;fillColor=#99CCFF;strokeWidth=2;opacity=49;" parent="1" vertex="1">
          <mxGeometry x="445" y="185" width="10" height="10" as="geometry" />
        </mxCell>
        <mxCell id="Ig6G22mn73n6YjTana8D-155" value="" style="endArrow=none;html=1;rounded=0;endFill=0;strokeColor=#000000;strokeWidth=2;opacity=60;" parent="1" source="Ig6G22mn73n6YjTana8D-156" target="Ig6G22mn73n6YjTana8D-154" edge="1">
          <mxGeometry width="50" height="50" relative="1" as="geometry">
            <mxPoint x="450" y="310" as="sourcePoint" />
            <mxPoint x="450" y="195" as="targetPoint" />
            <Array as="points" />
          </mxGeometry>
        </mxCell>
        <mxCell id="Ig6G22mn73n6YjTana8D-154" value="" style="rounded=0;whiteSpace=wrap;html=1;fillColor=#99CCFF;opacity=20;strokeWidth=1;" parent="1" vertex="1">
          <mxGeometry x="445" y="215" width="10" height="10" as="geometry" />
        </mxCell>
        <mxCell id="Ig6G22mn73n6YjTana8D-157" value="" style="endArrow=none;html=1;rounded=0;endFill=0;strokeColor=#000000;strokeWidth=2;opacity=60;" parent="1" source="Ig6G22mn73n6YjTana8D-158" target="Ig6G22mn73n6YjTana8D-156" edge="1">
          <mxGeometry width="50" height="50" relative="1" as="geometry">
            <mxPoint x="450" y="310" as="sourcePoint" />
            <mxPoint x="450" y="225" as="targetPoint" />
            <Array as="points" />
          </mxGeometry>
        </mxCell>
        <mxCell id="Ig6G22mn73n6YjTana8D-156" value="" style="rounded=0;whiteSpace=wrap;html=1;fillColor=#99CCFF;opacity=80;strokeWidth=4;" parent="1" vertex="1">
          <mxGeometry x="445" y="245" width="10" height="10" as="geometry" />
        </mxCell>
        <mxCell id="Ig6G22mn73n6YjTana8D-159" value="" style="endArrow=none;html=1;rounded=0;endFill=0;strokeColor=#000000;strokeWidth=2;opacity=60;" parent="1" source="Ig6G22mn73n6YjTana8D-160" target="Ig6G22mn73n6YjTana8D-158" edge="1">
          <mxGeometry width="50" height="50" relative="1" as="geometry">
            <mxPoint x="450" y="310" as="sourcePoint" />
            <mxPoint x="450" y="255" as="targetPoint" />
            <Array as="points" />
          </mxGeometry>
        </mxCell>
        <mxCell id="Ig6G22mn73n6YjTana8D-158" value="" style="rounded=0;whiteSpace=wrap;html=1;fillColor=#99CCFF;opacity=60;strokeWidth=3;" parent="1" vertex="1">
          <mxGeometry x="445" y="275" width="10" height="10" as="geometry" />
        </mxCell>
        <mxCell id="Ig6G22mn73n6YjTana8D-160" value="" style="rounded=0;whiteSpace=wrap;html=1;fillColor=#99CCFF;opacity=20;strokeWidth=1;" parent="1" vertex="1">
          <mxGeometry x="445" y="305" width="10" height="10" as="geometry" />
        </mxCell>
        <mxCell id="Ig6G22mn73n6YjTana8D-163" value="scores" style="text;html=1;strokeColor=none;fillColor=none;align=center;verticalAlign=middle;whiteSpace=wrap;rounded=0;fontFamily=Courier New;fontSize=16;rotation=0;" parent="1" vertex="1">
          <mxGeometry x="420" y="320" width="80" height="20" as="geometry" />
        </mxCell>
      </root>
    </mxGraphModel>
  </diagram>
</mxfile>
